<svg xmlns="http://www.w3.org/2000/svg" version="1.1" xmlns:xlink="http://www.w3.org/1999/xlink" xmlns:svgjs="http://svgjs.com/svgjs" width="1990" height="1059" preserveAspectRatio="none" viewBox="0 0 1990 1059"><g mask="url(&quot;#SvgjsMask1039&quot;)" fill="none"><rect width="1990" height="1059" x="0" y="0" fill="rgba(234, 219, 205, 1)"></rect><path d="M70 1059L1129 0L1867 0L808 1059z" fill="url(#SvgjsLinearGradient1040)"></path><path d="M751.7 1059L1810.7 0L2038.7 0L979.7 1059z" fill="url(#SvgjsLinearGradient1040)"></path><path d="M1921 1059L862 0L541 0L1600 1059z" fill="url(#SvgjsLinearGradient1041)"></path><path d="M1254.3 1059L195.29999999999995 0L-263.70000000000005 0L795.3 1059z" fill="url(#SvgjsLinearGradient1041)"></path><path d="M1363.8920123880698 1059L1990 432.89201238806993L1990 1059z" fill="url(#SvgjsLinearGradient1040)"></path><path d="M0 1059L626.1079876119301 1059L 0 432.89201238806993z" fill="url(#SvgjsLinearGradient1041)"></path></g><defs><mask id="SvgjsMask1039"><rect width="1990" height="1059" fill="#ffffff"></rect></mask><linearGradient x1="0%" y1="100%" x2="100%" y2="0%" id="SvgjsLinearGradient1040"><stop stop-color="rgba(188, 139, 94, 0.22)" offset="0"></stop><stop stop-opacity="0" stop-color="rgba(188, 139, 94, 0.22)" offset="0.66"></stop></linearGradient><linearGradient x1="100%" y1="100%" x2="0%" y2="0%" id="SvgjsLinearGradient1041"><stop stop-color="rgba(188, 139, 94, 0.22)" offset="0"></stop><stop stop-opacity="0" stop-color="rgba(188, 139, 94, 0.22)" offset="0.66"></stop></linearGradient></defs></svg>