<svg xmlns="http://www.w3.org/2000/svg" version="1.1" xmlns:xlink="http://www.w3.org/1999/xlink" xmlns:svgjs="http://svgjs.com/svgjs" width="1920" height="1059" preserveAspectRatio="none" viewBox="0 0 1920 1059"><g mask="url(&quot;#SvgjsMask1049&quot;)" fill="none"><rect width="1920" height="1059" x="0" y="0" fill="rgba(234, 219, 205, 1)"></rect><path d="M0,810.183C151.378,805.205,277.337,710.602,411.477,640.27C559.383,562.72,774.001,535.907,825.87,377.162C878.93,214.773,717.535,63.827,651.276,-93.639C602.745,-208.973,567.735,-326.463,488.907,-423.64C408.016,-523.36,311.327,-607.731,193.279,-658.248C64.702,-713.271,-76.931,-758.054,-212.53,-723.812C-350.024,-689.091,-441.181,-568.925,-544.613,-471.91C-660.289,-363.411,-819.272,-277.581,-853.406,-122.701C-887.895,33.789,-796.962,188.157,-721.206,329.364C-649.3,463.394,-555.799,583.546,-429.245,667.918C-301.234,753.261,-153.768,815.24,0,810.183" fill="#d0af8f"></path><path d="M1920 1903.376C2091.751 1945.1570000000002 2306.701 1983.4270000000001 2438.139 1865.24 2572.785 1744.1680000000001 2509.767 1521.4470000000001 2542.756 1343.403 2566.815 1213.552 2594.917 1092.011 2605.791 960.398 2619.928 789.2819999999999 2702.501 604.206 2616.084 455.84000000000003 2528.784 305.95899999999995 2336.944 254.39 2169.096 210.65599999999995 2004.961 167.89 1826.617 143.034 1670.558 209.47900000000004 1520.642 273.308 1427.0430000000001 420.154 1345.595 561.2760000000001 1275.182 683.277 1279.6680000000001 826.566 1236.9389999999999 960.7909999999999 1183.277 1129.36 990.647 1288.953 1062.483 1450.615 1134.079 1611.738 1386.05 1564.91 1541.966 1647.232 1679.352 1719.77 1769.042 1866.653 1920 1903.376" fill="#ffffff"></path></g><defs><mask id="SvgjsMask1049"><rect width="1920" height="1059" fill="#ffffff"></rect></mask></defs></svg>