<svg xmlns="http://www.w3.org/2000/svg" version="1.1" xmlns:xlink="http://www.w3.org/1999/xlink" xmlns:svgjs="http://svgjs.com/svgjs" width="1440" height="900" preserveAspectRatio="none" viewBox="0 0 1440 900"><g mask="url(&quot;#SvgjsMask1006&quot;)" fill="none"><rect width="1440" height="900" x="0" y="0" fill="rgba(234, 219, 205, 1)"></rect><path d="M12 900L912 0L1498.5 0L598.5 900z" fill="url(#SvgjsLinearGradient1007)"></path><path d="M483.20000000000005 900L1383.2 0L1849.7 0L949.7 900z" fill="url(#SvgjsLinearGradient1007)"></path><path d="M1407 900L507 0L-3 0L897 900z" fill="url(#SvgjsLinearGradient1008)"></path><path d="M940.8 900L40.799999999999955 0L-491.70000000000005 0L408.29999999999995 900z" fill="url(#SvgjsLinearGradient1008)"></path><path d="M678.4930073870783 900L1440 138.49300738707825L1440 900z" fill="url(#SvgjsLinearGradient1007)"></path><path d="M0 900L761.5069926129217 900L 0 138.49300738707825z" fill="url(#SvgjsLinearGradient1008)"></path></g><defs><mask id="SvgjsMask1006"><rect width="1440" height="900" fill="#ffffff"></rect></mask><linearGradient x1="0%" y1="100%" x2="100%" y2="0%" id="SvgjsLinearGradient1007"><stop stop-color="rgba(188, 139, 94, 0.22)" offset="0"></stop><stop stop-opacity="0" stop-color="rgba(188, 139, 94, 0.22)" offset="0.66"></stop></linearGradient><linearGradient x1="100%" y1="100%" x2="0%" y2="0%" id="SvgjsLinearGradient1008"><stop stop-color="rgba(188, 139, 94, 0.22)" offset="0"></stop><stop stop-opacity="0" stop-color="rgba(188, 139, 94, 0.22)" offset="0.66"></stop></linearGradient></defs></svg>